<svg width="45" height="45" viewBox="0 0 45 45" fill="none" xmlns="http://www.w3.org/2000/svg">
<g clip-path="url(#clip0_4_85)">
<path d="M22.5214 45C10.0835 45.0061 0 34.9466 0 22.5327C0 10.1025 10.0672 0.0102045 22.4745 -2.27545e-05C34.8859 -0.01025 44.998 10.0861 45 22.4857C45.002 34.922 34.9471 44.9938 22.5214 45ZM29.0702 17.3863C28.7394 17.417 28.7006 17.0713 28.4964 16.9363C28.3555 16.8443 28.1554 16.6091 28.1145 16.6357C27.4897 17.0509 26.8587 16.9609 26.1991 16.7523C26.0705 16.7113 25.8826 16.8566 25.7233 16.92C25.223 17.1143 24.7227 17.3086 24.1346 17.5377C24.2715 16.8811 24.3797 16.337 24.4981 15.797C24.539 15.6129 24.6513 15.4207 24.4777 15.2591C24.2694 15.0668 24.0754 15.2407 23.8896 15.3245C23.3199 15.5843 22.7522 15.8523 22.111 16.1509C22.1355 15.9341 22.1416 15.8298 22.158 15.7275C22.4847 13.8007 22.4888 13.7904 20.6509 13.1359C19.4666 12.7145 18.2516 12.5243 16.9916 12.7636C16.5955 12.8393 16.4117 12.9825 16.4791 13.4407C16.5547 13.9561 16.6465 14.4818 16.5485 15.0852C15.9666 14.7088 15.4152 14.3857 14.9067 14.0073C14.6188 13.7925 14.4575 13.9295 14.2513 14.0952C14.0287 14.2732 13.9082 14.4307 14.0736 14.7375C14.3452 15.2407 14.5657 15.7725 14.8332 16.3452C14.1798 16.3677 13.6264 16.2041 13.0669 16.1018C12.7667 16.0466 12.587 16.1182 12.4645 16.4107C12.3501 16.6786 12.246 16.8832 12.5298 17.1429C12.9811 17.5561 13.3793 18.0266 13.8245 18.4991C13.3569 18.6136 12.8913 18.765 12.4155 18.8345C11.8927 18.9102 11.7743 19.1823 11.8355 19.6629C12.1153 21.8945 13.2793 23.5554 15.0885 24.8175C15.3458 24.9975 15.5275 24.9811 15.7379 24.7357C16.136 24.2673 16.5628 23.8234 17.0713 23.265C17.2387 24.0688 17.3817 24.6723 17.4858 25.2838C17.5267 25.5293 17.6083 25.6725 17.8616 25.7195C18.127 25.7666 18.1781 25.5723 18.2761 25.4086C18.6191 24.8461 18.9704 24.2877 19.3441 23.6884C19.6197 24.2775 19.8607 24.8032 20.1119 25.3227C20.1976 25.5007 20.1976 25.7584 20.5162 25.7338C20.7878 25.7134 20.8633 25.5232 20.9532 25.3288C21.2268 24.7398 21.5004 24.1486 21.819 23.4675C22.1518 24.0136 22.4377 24.4616 22.6991 24.9218C22.889 25.2593 23.0993 25.4577 23.5425 25.4557C24.396 25.4516 25.2149 25.7686 25.66 26.4743C26.144 27.2413 26.8076 27.4807 27.5918 27.6341C27.894 27.6934 28.1921 27.7875 28.4984 27.8673C28.4637 27.9429 28.4556 27.992 28.427 28.0166C27.9879 28.3929 27.5469 28.7673 27.1017 29.1375C26.4707 29.6632 26.4625 29.745 26.8914 30.4588C27.1609 30.9068 27.4999 31.32 27.6449 31.817C27.0139 31.817 26.4094 31.8784 25.8213 31.8007C25.1924 31.7188 25.0005 31.9684 24.9719 32.5391C24.9474 33.0382 24.8534 33.5352 24.7799 34.1243C24.2306 33.6682 23.7589 33.2734 23.2831 32.8807C22.6501 32.3591 22.1314 32.3325 21.4147 32.7129C20.8817 32.9952 20.3937 33.3879 19.7484 33.5291C19.8096 32.8909 19.875 32.3243 19.9158 31.7577C19.9587 31.1441 19.8484 31.0623 19.2644 31.2504C18.6641 31.4427 18.0658 31.6473 17.3653 31.8804C17.5573 31.2402 17.6757 30.7002 17.882 30.195C18.0412 29.8022 17.9024 29.6243 17.5981 29.4238C15.9196 28.3132 13.8572 28.6936 12.3767 30.4016C12.199 30.6082 12.3154 30.7554 12.3849 30.9211C12.6258 31.5102 12.877 32.0952 13.1669 32.7866C12.5053 32.6659 11.9458 32.5452 11.3802 32.4634C10.7512 32.3713 10.543 32.6454 10.7757 33.2304C11.0187 33.842 11.2781 34.4454 11.5578 35.1225C10.9064 34.9813 10.3142 34.8995 9.75269 34.7175C9.33407 34.5825 9.21768 34.8463 9.05023 35.0836C8.85012 35.3659 9.13396 35.4538 9.27894 35.5786C9.58729 35.8445 9.90584 36.0961 10.2244 36.3518C10.705 36.7377 11.1236 36.6729 11.4802 36.1575C12.4032 34.8423 13.3017 33.5086 14.2635 32.222C15.0374 31.1891 15.648 31.1543 16.6159 31.9704C17.6328 32.8275 18.6641 33.6538 19.826 34.3186C23.6813 36.5236 27.9961 33.842 28.9661 30.8495C30.2484 26.8916 27.1834 22.3834 22.644 22.8804C21.0103 23.0584 19.3767 23.3386 17.7186 23.0543C15.7031 22.7086 14.1206 20.4852 14.5086 18.4868C15.017 15.8707 17.4511 14.6066 19.9526 15.6579C21.6863 16.3861 23.1912 17.4804 24.6717 18.6116C26.2522 19.8204 27.5081 19.9186 29.2274 18.9245C29.674 18.6668 29.7318 18.3498 29.401 17.9734C29.2458 17.7975 29.0825 17.6298 29.0641 17.3761C29.8523 17.5111 30.5895 17.0611 31.4369 17.1429C31.1878 17.7116 30.9713 18.2434 30.7202 18.7588C30.5833 19.037 30.6262 19.2273 30.8447 19.4359C31.3654 19.9329 31.9985 19.8266 32.3538 19.1188C32.9868 17.8568 33.5708 16.5702 34.2038 15.3102C34.4877 14.7457 34.5265 14.2588 34.0119 13.8129C33.7035 13.545 33.7914 13.3486 34.1058 13.1257C34.9145 12.557 35.7782 12.3811 36.7176 12.6941C36.9606 12.7759 37.077 12.7166 37.1648 12.5018C37.2628 12.2604 37.081 12.1888 36.9238 12.1438C36.6583 12.0661 36.3847 11.9966 36.1111 11.9741C35.2698 11.9086 35.1391 11.7798 35.1391 10.9063C35.1391 10.7366 35.1575 10.5648 35.1799 10.395C35.2126 10.1495 35.0268 10.1107 34.8675 10.0759C34.6572 10.0309 34.6204 10.1925 34.6082 10.35C34.5918 10.5423 34.5224 10.7611 34.5857 10.9248C34.9941 11.9741 34.3141 12.4241 33.5667 12.8454C33.5484 12.8557 33.5341 12.8741 33.5198 12.8884C33.3932 13.0111 33.2808 13.0193 33.1338 12.8945C32.8173 12.6245 32.464 12.6982 32.1067 12.8209C30.7916 13.2688 29.4766 13.7127 28.1574 14.1525C27.9103 14.2343 27.6653 14.3202 27.4856 14.5125C27.2283 14.7907 27.1813 15.1179 27.3324 15.4636C27.4897 15.8236 27.7776 15.6968 28.0492 15.6498C28.6414 15.5454 29.2356 15.4513 29.8993 15.3409C29.5991 16.0875 29.3357 16.7379 29.0743 17.3904L29.0702 17.3863ZM38.8494 15.2141C38.4022 16.4127 37.9918 17.5561 37.5487 18.6852C37.1056 19.8163 36.6828 20.9618 36.0437 22.005C35.5454 22.8191 35.0982 22.9909 34.2181 22.6677C33.6178 22.4468 33.0399 22.1645 32.4416 21.9334C31.2286 21.465 30.0361 20.9107 28.6843 20.9741C28.2963 20.9925 27.9369 21.0763 27.8021 21.4793C27.6735 21.8618 27.9267 22.1277 28.186 22.367C28.7782 22.9173 29.5011 23.2445 30.2342 23.5432C31.0244 23.8663 31.8392 24.1343 32.5559 24.617C33.4953 25.2491 34.0037 26.1041 33.9649 27.2618C33.9159 28.6834 33.4136 29.9843 32.8357 31.2463C31.7064 33.7152 30.52 36.1595 29.3683 38.6182C29.2948 38.7736 29.1131 38.9291 29.2458 39.1336C29.7257 39.06 29.9707 38.7532 30.1647 38.3338C30.7937 36.9757 31.4737 35.64 32.1006 34.2818C32.9419 32.4593 33.8567 30.6654 34.3529 28.6997C34.9573 26.3066 34.2712 24.7582 32.0679 23.6802C31.5125 23.4082 30.9284 23.1975 30.3546 22.9643C29.7379 22.7127 29.1478 22.4141 28.6189 22.005C28.5209 21.9293 28.3902 21.8393 28.4188 21.6961C28.4596 21.4916 28.6536 21.5366 28.7884 21.5386C29.6563 21.5448 30.4669 21.8107 31.2756 22.097C32.3824 22.4898 33.4054 23.0993 34.5632 23.3632C35.2085 23.5104 35.7476 23.3182 36.1826 22.8354C36.4562 22.5327 36.6747 22.1891 36.8585 21.8229C37.7059 20.1375 38.2879 18.3457 38.9699 16.5927C39.1517 16.1263 39.2538 15.707 38.8515 15.2182L38.8494 15.2141ZM13.6305 26.3925C13.0485 26.5091 12.5768 26.282 12.1051 26.1041C11.225 25.7707 10.4327 25.2429 9.53011 24.9484C8.25589 24.5311 7.16953 24.8032 6.25267 25.7604C5.95657 26.0693 5.69315 26.4088 5.41952 26.7402C5.15406 27.0593 5.06421 27.3886 5.39502 27.7445C5.76667 27.2761 6.12402 26.7975 6.512 26.3454C7.20833 25.5354 8.06598 25.1427 9.13804 25.4516C9.54644 25.5702 9.9426 25.7338 10.3285 25.9138C11.2577 26.3454 12.1541 26.867 13.1894 27.0184C13.5304 27.0675 13.9021 27.0573 14.1063 26.7095C14.3105 26.3618 14.1349 26.0488 13.9307 25.7584C13.4978 25.1509 12.8994 24.7336 12.2807 24.3491C11.2985 23.7395 10.3163 23.1341 9.44434 22.3609C8.11907 21.1848 7.65553 19.7836 8.2661 18.0859C8.41108 17.685 8.56219 17.28 8.75618 16.9016C10.2081 14.0666 12.1561 11.5568 13.9735 8.96316C14.7025 7.92202 15.4438 6.88907 16.2422 5.76611C15.7011 5.82748 15.3703 5.97884 15.115 6.34702C14.335 7.47407 13.5182 8.57657 12.7361 9.70157C11.0861 12.0723 9.3157 14.3673 8.06394 16.9957C6.92245 19.3929 7.26142 21.1684 9.21155 22.9438C9.33816 23.0584 9.47702 23.1607 9.60975 23.2691C10.4613 23.9584 11.4394 24.4616 12.3318 25.0895C12.828 25.4393 13.3589 25.7686 13.6325 26.3945L13.6305 26.3925ZM22.6174 2.47907C22.6174 2.3502 22.595 2.21725 22.6215 2.09452C22.7277 1.59748 22.5194 1.4727 22.0457 1.50339C20.894 1.57907 21.0961 1.3643 21.1533 2.51793C21.1655 2.77361 21.1962 3.0293 21.2186 3.28293C21.2288 3.4077 21.2248 3.51816 21.3983 3.56725C22.1947 3.78611 22.6174 3.48339 22.6174 2.67134C22.6174 2.60793 22.6174 2.54248 22.6174 2.47907ZM23.4934 2.56089H23.4812C23.4751 2.6877 23.4894 2.82066 23.4587 2.94134C23.328 3.46498 23.571 3.54066 24.0468 3.61634C24.7636 3.73293 24.929 3.41998 24.931 2.8227C24.931 2.65293 24.9208 2.46884 24.978 2.31543C25.2087 1.69975 24.8596 1.60566 24.3736 1.56475C23.5588 1.49316 23.5588 1.48089 23.5139 2.3052C23.5098 2.39111 23.5016 2.47498 23.4955 2.56089H23.4934ZM40.6852 11.9741C40.4688 11.6407 40.2829 11.1988 39.9583 10.9145C39.7786 10.757 39.5111 11.1293 39.2844 11.2643C39.0455 11.4054 38.8372 11.5977 38.5942 11.7307C38.3206 11.8841 38.296 12.0457 38.4778 12.287C38.6187 12.4752 38.7269 12.6838 38.8515 12.8843C38.9311 13.0111 38.9924 13.1482 39.1905 13.0295C39.6499 12.7575 40.1175 12.4977 40.5831 12.2359C40.6689 12.1888 40.7036 12.1254 40.6852 11.9741ZM40.4402 33.0484C40.5954 33.1098 40.6628 33.0566 40.7036 32.9788C40.8976 32.6025 41.1855 32.2343 41.2345 31.8395C41.2611 31.6227 40.7689 31.5491 40.5178 31.3977C40.4443 31.3547 40.3667 31.3179 40.2891 31.2811C39.5253 30.8986 39.5213 30.8966 39.121 31.6759C39.0414 31.8293 38.8004 32.0298 39.0128 32.1791C39.4825 32.5104 39.995 32.7825 40.4402 33.0484ZM41.8124 24.6068C41.645 24.6211 41.4285 24.5229 41.3836 24.6927C41.2856 25.0588 41.0671 25.5804 41.2263 25.7891C41.5817 26.2534 42.2698 26.0754 42.7987 26.2493C42.9273 26.2922 43.1438 26.3393 43.1744 26.1388C43.2398 25.7216 43.4644 25.2838 43.299 24.8891C43.1744 24.5904 42.7599 24.7704 42.4801 24.7091C42.2514 24.6579 42.0187 24.6375 41.8124 24.6068ZM20.3304 2.99657C20.1547 1.2743 20.2875 1.6527 19.1664 1.76111C18.7049 1.80611 18.6579 1.97998 18.7662 2.36861C18.8683 2.7368 18.905 3.12134 18.9806 3.49566C19.0051 3.6143 19.0071 3.81475 19.148 3.80452C19.5258 3.77793 19.924 3.75543 20.2691 3.61634C20.5366 3.50793 20.2834 3.19293 20.3324 2.99657H20.3304ZM3.16309 20.4566C3.94518 20.4034 3.78182 19.757 3.72873 19.4584C3.57354 18.6075 2.74039 18.9368 2.22172 18.8325C1.49067 18.6852 1.68467 19.4523 1.70304 19.7632C1.76839 20.8698 2.78736 20.0086 3.16513 20.4545L3.16309 20.4566ZM42.3413 21.5079C42.6415 21.4916 42.8988 21.4691 43.154 21.4629C43.395 21.4568 43.4644 21.3566 43.4705 21.107C43.5073 19.9902 43.4072 19.8879 42.3372 20.0454C42.1269 20.0761 41.9125 20.0884 41.7001 20.1068C41.5694 20.1191 41.3897 20.1395 41.3897 20.2745C41.3877 20.655 41.3652 21.06 41.4836 21.4098C41.5653 21.6552 41.9084 21.467 42.131 21.5038C42.2147 21.5182 42.3025 21.5059 42.3413 21.5059V21.5079ZM27.8205 40.7229C27.553 40.907 26.8709 40.7843 26.8403 41.1116C26.7852 41.6782 27.0445 42.2775 27.1813 42.8604C27.1915 42.9013 27.2896 42.9586 27.3324 42.9484C27.747 42.8461 28.3882 42.8502 28.5229 42.5945C28.7741 42.1118 28.3106 41.5759 28.1962 41.0502C28.1615 40.8927 28.1615 40.6861 27.8205 40.725V40.7229ZM32.9827 6.68248C33.0562 6.6027 33.1338 6.53725 33.189 6.45748C33.3707 6.19566 33.5136 5.90111 33.726 5.66793C34.1671 5.18316 34.0568 4.92339 33.5096 4.58384C32.9562 4.24225 32.6723 4.28111 32.4538 4.88657C32.3905 5.06452 32.2578 5.21589 32.1802 5.38975C32.0903 5.59225 31.7881 5.8193 31.9576 5.9952C32.2312 6.27543 32.6172 6.44725 32.9827 6.68248ZM42.5516 23.8275C43.1724 23.852 43.4875 23.5452 43.4971 22.907C43.4971 22.8007 43.4971 22.6923 43.495 22.5859C43.493 22.4713 43.4542 22.3527 43.3296 22.3548C42.7558 22.365 42.182 22.3875 41.6082 22.4161C41.5653 22.4182 41.5143 22.4938 41.4898 22.547C41.1733 23.2323 41.4898 23.7702 42.231 23.8091C42.3372 23.8152 42.4434 23.8213 42.5516 23.8275ZM2.57295 21.2318C2.27685 21.2073 2.06244 21.197 1.85211 21.1684C1.68671 21.1459 1.54377 21.1438 1.53764 21.3607C1.52743 21.7248 1.37836 22.1911 1.54785 22.4325C1.91133 22.95 2.5464 22.5695 3.0569 22.6575C3.23456 22.6882 3.47143 22.7598 3.53882 22.4141C3.7226 21.4711 3.59804 21.2788 2.68321 21.2318C2.61991 21.2277 2.55457 21.2318 2.57295 21.2318ZM18.1699 3.7493C18.0943 3.41793 17.98 3.08861 17.9494 2.75316C17.8942 2.14157 17.6451 1.98816 17.055 2.19066C16.3035 2.44839 16.2912 2.41157 16.5404 3.2052C16.5669 3.28702 16.5832 3.37089 16.6078 3.45066C16.812 4.11611 17.2387 4.3302 17.8881 4.09293C18.0576 4.03157 18.223 3.98657 18.1699 3.74725V3.7493ZM42.9621 27.2863C42.9784 27.2434 42.8967 27.1943 42.7783 27.1677C42.2596 27.047 41.743 26.9202 41.2263 26.8016C41.0364 26.7586 40.9609 26.8772 40.9221 27.0409C40.8629 27.2904 40.822 27.5461 40.7281 27.7834C40.6056 28.0984 40.7975 28.1925 41.0201 28.1986C41.5735 28.215 42.0799 28.9125 42.6272 28.4093C42.8538 28.2007 42.8416 27.7343 42.9641 27.2863H42.9621ZM40.1114 33.975C40.0542 33.9136 40.0216 33.8604 39.9746 33.8298C39.5131 33.525 39.0496 33.2223 38.584 32.9236C38.4247 32.8213 38.3696 32.9625 38.2879 33.0545C37.5568 33.8645 37.5589 33.8911 38.4451 34.56C38.5309 34.6234 38.6064 34.7052 38.7004 34.7502C38.9148 34.8504 39.1006 35.2452 39.313 35.055C39.6377 34.7666 39.848 34.3473 40.1094 33.975H40.1114ZM26.2502 42.9095C26.24 42.8154 26.2338 42.7295 26.2175 42.6457C26.1419 42.2468 26.0603 41.8479 25.9888 41.447C25.9622 41.3018 25.903 41.2363 25.7437 41.2159C24.9637 41.1116 24.59 41.445 24.6717 42.1916C24.6778 42.255 24.6819 42.3204 24.688 42.3838C24.7983 43.7257 24.7289 43.3411 25.8458 43.2613C25.9092 43.2573 25.9725 43.2368 26.0337 43.2225C26.2052 43.1836 26.2971 43.0895 26.2502 42.9095ZM21.4821 42.5168C21.5004 42.2018 21.5004 41.987 21.529 41.7763C21.5535 41.5984 21.5106 41.5145 21.3228 41.4593C20.3589 41.1791 20.1588 41.3079 20.0526 42.3061C20.0261 42.5598 19.9791 42.8134 19.9485 43.067C19.9301 43.2204 19.9383 43.335 20.1404 43.4004C21.1145 43.7154 21.4494 43.4945 21.4861 42.48C21.4861 42.4595 21.4902 42.437 21.4821 42.5188V42.5168ZM41.8104 14.2057C41.6205 13.8252 41.4959 13.3854 41.2243 13.0827C41.0099 12.8454 40.7485 13.2177 40.5055 13.3036C40.2278 13.4018 39.9746 13.5695 39.7071 13.7004C39.5008 13.8007 39.3906 13.9459 39.5437 14.1484C39.7602 14.4368 39.7091 15.0648 40.1257 15.0136C40.673 14.9441 41.1855 14.6066 41.7103 14.3754C41.7552 14.355 41.7716 14.2752 41.8104 14.2077V14.2057ZM12.0888 38.3891C11.8948 38.3482 11.8396 38.4791 11.7702 38.5813C11.5905 38.8452 11.4394 39.1357 11.2311 39.375C10.8166 39.8516 10.9269 40.1134 11.4639 40.4222C11.9642 40.7086 12.2807 40.8088 12.4951 40.1625C12.5482 40.0029 12.6728 39.872 12.7422 39.7166C12.8484 39.4793 13.1874 39.2216 13.0097 39.0088C12.7769 38.7286 12.3869 38.5793 12.0867 38.3891H12.0888ZM28.4127 2.33793C28.139 2.7593 28.0819 3.2768 27.941 3.7493C27.8879 3.9252 27.6367 4.19725 28.0043 4.34043C28.2799 4.44884 28.5699 4.52452 28.8517 4.61861C29.1253 4.70861 29.1907 4.51634 29.2315 4.32407C29.3438 3.79225 29.9115 3.2993 29.5807 2.7593C29.4276 2.50975 28.8925 2.49543 28.4147 2.33793H28.4127ZM35.1411 39.2236C34.8471 38.835 34.5387 38.4791 34.2896 38.0843C34.0507 37.7059 33.8771 37.7284 33.4953 37.9513C32.8827 38.3093 32.803 38.6427 33.2727 39.1561C33.4136 39.3116 33.4912 39.5223 33.628 39.6859C33.7485 39.8291 33.7811 40.1788 34.065 40.0254C34.4509 39.8168 34.8307 39.5775 35.1432 39.2236H35.1411ZM41.5 19.305C41.9553 19.2252 42.3944 19.1229 42.8395 19.0779C43.1642 19.0452 43.1989 18.9348 43.1458 18.63C42.9539 17.5193 42.9682 17.5173 41.9023 17.7627C41.7981 17.7873 41.6838 17.7893 41.5919 17.8343C41.3918 17.9304 41.016 17.8282 41.0099 18.1186C41.0017 18.4909 41.1283 18.8713 41.2263 19.2395C41.257 19.352 41.4122 19.307 41.5 19.307V19.305ZM4.30458 17.0938C4.27803 17.0468 4.25353 16.9363 4.19839 16.9179C3.65522 16.7359 3.10591 16.5682 2.55661 16.4045C2.51373 16.3923 2.41571 16.4352 2.40346 16.472C2.28094 16.8791 1.96851 17.3863 2.10532 17.6748C2.32178 18.1329 2.98748 18.0163 3.45918 18.1452C3.62254 18.1902 3.88188 18.4275 4.01053 18.1145C4.13917 17.8016 4.20044 17.462 4.30254 17.0918L4.30458 17.0938ZM32.0801 38.9066C31.7146 39.105 31.3328 39.2359 31.053 39.4834C30.8018 39.7043 31.1286 39.9395 31.2164 40.1584C31.345 40.4754 31.5145 40.7741 31.6636 41.0829C31.7473 41.2548 31.8228 41.3263 32.0475 41.2363C33.142 40.8048 33.1869 40.7004 32.5988 39.6982C32.4906 39.5141 32.3885 39.3259 32.2741 39.1438C32.221 39.06 32.1475 38.9863 32.0801 38.9066ZM17.2081 41.0298C17.0059 40.4918 16.4321 40.3793 16.1401 40.4366C15.3621 40.59 15.4275 41.4491 15.3233 41.9911C15.2192 42.527 16.038 42.6007 16.3402 42.5557C17.1468 42.4309 16.7262 41.5023 17.2101 41.0298H17.2081ZM6.44666 12.1459C6.51609 12.1173 6.59368 12.1091 6.62431 12.0682C6.85098 11.7573 7.16137 11.4648 7.25326 11.117C7.31452 10.8859 6.88773 10.7529 6.68149 10.5791C6.48546 10.4134 6.25879 10.2845 6.07093 10.1127C5.82588 9.8877 5.65231 9.88566 5.4767 10.1904C5.33988 10.4318 5.16019 10.6486 5.00703 10.8777C4.9519 10.9595 4.83755 11.072 4.95598 11.1538C5.44607 11.4934 5.95045 11.8166 6.45074 12.1459H6.44666ZM2.59745 23.5452V23.5738C2.34016 23.5738 2.0849 23.5698 1.82761 23.5738C1.69896 23.5759 1.55602 23.5882 1.54581 23.762C1.52131 24.1916 1.50088 24.6579 1.69488 25.022C1.82148 25.2593 2.20334 25.0241 2.47084 25.0057C2.74856 24.9873 3.02423 24.9504 3.29786 24.9095C3.41834 24.8911 3.61029 24.8952 3.61029 24.7459C3.60825 24.3634 3.6348 23.9523 3.50002 23.6107C3.39588 23.3468 3.0324 23.5718 2.78736 23.5452C2.72406 23.5391 2.65871 23.5452 2.59541 23.5452H2.59745ZM16.0727 4.54907C16.0544 4.46725 16.0523 4.4468 16.0442 4.42634C15.9339 4.12566 15.8216 3.82498 15.7154 3.5243C15.4234 2.69793 15.4336 2.72657 14.6413 3.0068C14.1389 3.18475 13.9429 3.39134 14.2676 3.89452C14.4167 4.12566 14.5351 4.38748 14.6086 4.65134C14.7352 5.10748 14.9639 5.15657 15.3397 4.92339C15.5765 4.77611 15.9114 4.79043 16.0707 4.54907H16.0727ZM30.9632 3.2727C30.6752 3.16634 30.6119 3.24816 30.569 3.35248C30.3628 3.84339 30.0524 4.31998 29.983 4.8293C29.9197 5.29975 30.5364 5.20566 30.808 5.42861C30.9938 5.58202 31.1469 5.5493 31.2592 5.31611C31.4716 4.8743 31.7003 4.4427 31.9188 4.00293C31.9637 3.91293 32.0434 3.80452 31.9045 3.73293C31.5451 3.55089 31.1796 3.37702 30.9632 3.2727ZM15.0517 40.1604C15.0436 40.095 15.0517 40.0275 15.0313 40.0152C14.6923 39.8413 14.3656 39.6266 14.0062 39.5223C13.6999 39.4343 13.704 39.8045 13.5774 39.9743C13.5141 40.0582 13.4773 40.1625 13.4304 40.2566C12.9035 41.312 12.9403 41.4 14.0614 41.7436C14.1737 41.7784 14.3064 41.9011 14.386 41.7232C14.6188 41.1995 14.8373 40.6677 15.0517 40.1584V40.1604ZM5.52775 30.9907C5.37051 30.6879 5.25208 30.2932 4.99682 30.0334C4.82325 29.8554 4.5435 30.1602 4.30458 30.2236C4.2229 30.2461 4.1453 30.2829 4.0677 30.3177C3.13654 30.7145 3.16922 30.7002 3.56537 31.6248C3.75936 32.0768 3.93906 32.0829 4.30049 31.8416C4.60067 31.6432 4.94373 31.5102 5.26433 31.3425C5.38889 31.277 5.5543 31.2341 5.52775 30.9907ZM39.3436 9.95725C39.1088 9.66271 38.8984 9.13089 38.5697 9.04293C37.9857 8.88748 37.7365 9.60748 37.2914 9.87748C37.1362 9.97157 36.9095 10.0718 37.081 10.3745C37.5568 11.2193 37.759 11.2766 38.537 10.7038C38.7433 10.5525 38.9536 10.4052 39.1557 10.2498C39.2354 10.1884 39.3518 10.1495 39.3456 9.9552L39.3436 9.95725ZM22.3765 42.5863C22.4541 42.8216 22.1416 43.3104 22.5174 43.4741C22.8522 43.6193 23.4363 43.6418 23.6874 43.4393C24.1469 43.0691 23.7017 42.4595 23.7814 41.9523C23.8038 41.807 23.8712 41.5718 23.5935 41.4798C22.8563 41.2384 22.3867 41.5432 22.3785 42.2918C22.3785 42.3552 22.3785 42.4207 22.3785 42.5863H22.3765ZM30.9019 41.582C30.6711 41.0686 30.4404 40.5429 30.1954 40.0234C30.1729 39.9763 30.0483 39.9559 29.9748 39.962C29.156 40.0295 28.8844 40.4488 29.16 41.2118C29.1825 41.2711 29.1968 41.3345 29.2172 41.3938C29.5603 42.347 29.5623 42.3511 30.5017 41.9318C30.6568 41.8623 30.8978 41.8643 30.9019 41.582ZM5.09484 34.1734C5.50733 33.8911 5.8851 33.6088 6.2833 33.3654C6.60389 33.1691 6.72233 33.0116 6.46095 32.6352C5.96066 31.9152 5.98925 31.8968 5.24391 32.3202C5.05808 32.4266 4.85797 32.5125 4.69256 32.6434C4.55371 32.7538 4.19227 32.7416 4.35359 33.0566C4.55166 33.4473 4.75178 33.8482 5.09484 34.1734ZM14.0573 5.46339C13.8122 4.95202 13.5774 4.52043 13.3936 4.06839C13.2507 3.71657 13.0853 3.70634 12.7749 3.86998C11.8192 4.37316 11.8131 4.36293 12.3706 5.30793C12.4686 5.47361 12.5707 5.63521 12.6667 5.80089C12.7647 5.96861 12.8504 6.16089 13.0996 6.0177C13.4202 5.83361 13.7387 5.64748 14.0573 5.46134V5.46339ZM10.9759 4.92339C10.6124 5.19134 10.1999 5.3877 9.94872 5.71089C9.7486 5.96657 10.1591 6.16089 10.2918 6.38384C10.4347 6.62111 10.6348 6.82157 10.7798 7.0568C10.935 7.3043 11.082 7.38611 11.3291 7.16725C11.5047 7.01384 11.7089 6.89316 11.9029 6.7602C12.0316 6.67225 12.1643 6.58634 12.05 6.40634C11.762 5.95839 11.4721 5.51043 11.1739 5.06861C11.1331 5.00725 11.0494 4.97657 10.9759 4.92543V4.92339ZM4.99887 15.1568C5.06013 14.9359 5.03562 14.8479 4.91514 14.7968C4.42914 14.5861 3.94723 14.3673 3.45714 14.1627C3.39588 14.1361 3.25294 14.1566 3.2366 14.1954C3.06507 14.582 2.68934 15.0607 2.79961 15.3511C2.98748 15.8523 3.68585 15.7766 4.15143 15.9873C4.30662 16.0588 4.51286 16.245 4.64764 15.9934C4.80896 15.6968 4.91106 15.3695 4.99887 15.1568ZM4.08404 26.7709C3.70218 26.5029 4.16776 25.8075 3.53065 25.7625C3.03444 25.7277 2.52394 25.9077 2.01956 25.9895C1.87253 26.0141 1.78268 26.0713 1.81944 26.2391C1.89704 26.5929 1.89499 26.9959 2.07061 27.2904C2.32586 27.722 2.72201 27.3477 3.02832 27.2782C3.37138 27.1984 3.83491 27.2659 4.08608 26.7709H4.08404ZM4.64151 28.9882C4.67623 28.2518 4.19635 27.8652 3.4939 28.0677C3.43264 28.0861 3.36933 28.0963 3.30807 28.1147C2.29727 28.4134 2.21151 28.6384 2.70568 29.5854C2.80982 29.7838 2.91805 29.8227 3.10795 29.7511C3.54699 29.5834 3.98602 29.4157 4.4271 29.2561C4.55983 29.207 4.65989 29.1518 4.64151 28.9882ZM19.3604 41.5472C19.146 40.9704 18.5191 40.9623 18.2638 41.0441C17.5328 41.2773 17.69 42.1016 17.641 42.6457C17.5818 43.3104 18.419 43.1938 18.6988 43.1182C19.4829 42.9054 18.9806 42.0361 19.3604 41.5472ZM41.9962 15.2366C41.5041 15.4268 40.965 15.6313 40.432 15.8502C40.3136 15.8993 40.3626 16.0302 40.3789 16.1366C40.5198 17.1123 40.6791 17.2207 41.596 16.9466C41.7389 16.9036 41.8798 16.8382 42.0268 16.8218C42.6251 16.7502 42.6946 16.4332 42.4618 15.9463C42.3801 15.7745 42.3413 15.5802 42.2698 15.4023C42.2331 15.3102 42.1943 15.1936 41.9982 15.2366H41.9962ZM8.73168 9.4193C8.42742 9.11043 8.11703 8.84861 7.87403 8.53361C7.46767 8.00793 7.18791 8.07952 6.75705 8.55611C6.33843 9.01839 6.30984 9.29043 6.84894 9.61157C7.04701 9.73021 7.20629 9.91634 7.39824 10.0473C7.5616 10.1577 7.70046 10.4748 7.91079 10.3091C8.22117 10.0657 8.45601 9.72611 8.72964 9.4193H8.73168ZM41.5469 30.8966C41.6858 30.9191 41.7593 30.8884 41.7961 30.7984C41.9492 30.4036 42.2535 30.0191 42.1881 29.61C42.1473 29.3543 41.694 29.3604 41.4285 29.2438C41.1957 29.1416 40.9486 29.0741 40.7118 28.9841C40.5035 28.9063 40.3156 28.9063 40.2727 29.162C40.2135 29.5179 39.7214 29.9086 40.0481 30.1807C40.4708 30.5325 41.0671 30.6797 41.5469 30.8945V30.8966ZM25.7009 3.39748C25.6947 3.52225 25.6212 3.71452 25.7417 3.75134C26.1031 3.86384 26.483 3.98657 26.8526 3.98248C27.1221 3.97839 27.0649 3.62043 27.1384 3.41384C27.1813 3.29316 27.2038 3.16634 27.2344 3.04157C27.4733 2.07611 27.4652 2.10884 26.5115 1.87975C26.0582 1.77134 25.8928 1.87157 25.8561 2.31748C25.8275 2.67952 25.7519 3.03543 25.6988 3.39543L25.7009 3.39748ZM10.0733 39.4752C10.3633 39.0845 10.6001 38.7082 10.8921 38.3809C11.225 38.0045 11.2229 37.7918 10.8002 37.4298C10.2979 36.9982 10.012 37.0268 9.69551 37.5668C9.59954 37.7304 9.43413 37.8491 9.32591 38.0066C9.20134 38.1886 8.84807 38.3563 9.01552 38.565C9.28915 38.9045 9.68122 39.1479 10.0733 39.4732V39.4752ZM34.6898 7.95271C34.8838 7.9793 34.9369 7.8402 35.0166 7.75021C35.231 7.51089 35.4045 7.22657 35.6455 7.02407C36.1417 6.6068 35.9804 6.33884 35.5332 6.0177C34.8859 5.55339 34.9022 5.53089 34.4162 6.18952C34.3141 6.32657 34.1936 6.45543 34.1181 6.6068C34.0119 6.81543 33.6525 6.99134 33.8342 7.22861C34.0589 7.52521 34.4121 7.72566 34.6898 7.95066V7.95271ZM37.1689 34.652C37.1035 34.6868 37.0586 34.697 37.0341 34.7257C36.7809 35.0141 36.4399 35.2718 36.3112 35.6113C36.2193 35.8486 36.6481 35.9918 36.8176 36.2025C36.9504 36.3682 37.1505 36.4807 37.275 36.6504C37.5936 37.0861 37.81 36.9368 38.1 36.5973C38.6963 35.8977 38.7126 35.912 38.0061 35.327C37.8917 35.2309 37.7733 35.1388 37.6569 35.0448C37.4915 34.9118 37.3261 34.7809 37.1709 34.6561L37.1689 34.652ZM37.8795 8.13884C37.5425 7.82384 37.2219 7.51907 36.8952 7.22248C36.8585 7.18771 36.7482 7.17134 36.7237 7.19589C36.3092 7.62543 35.9008 8.06316 35.5005 8.50498C35.474 8.53361 35.4862 8.63793 35.5189 8.67066C35.7844 8.9468 36.0192 9.3027 36.348 9.45611C36.5665 9.55839 36.7707 9.16975 36.9749 8.99793C37.1709 8.83225 37.3485 8.64611 37.5344 8.47021C37.6263 8.38225 37.7182 8.2943 37.8795 8.14089V8.13884ZM9.59137 36.362C9.29323 36.0961 9.02777 35.8138 8.71738 35.597C8.43354 35.3986 8.33348 35.7607 8.15787 35.8711C7.96388 35.9959 7.82706 36.2066 7.63511 36.3375C7.14707 36.6729 7.17974 36.9327 7.59836 37.3561C8.04556 37.8061 8.34574 37.9534 8.74189 37.3459C8.90117 37.1004 9.14213 36.9061 9.34224 36.6832C9.41167 36.6075 9.46885 36.5216 9.59137 36.362ZM36.9851 37.6732C36.9116 37.5852 36.8483 37.4993 36.7768 37.4236C36.542 37.1761 36.2744 36.9511 36.0723 36.6791C35.7803 36.2823 35.5638 36.2679 35.1718 36.6054C34.7184 36.9961 34.5408 37.2886 35.0758 37.7263C35.2534 37.8736 35.3678 38.0966 35.5352 38.2602C35.6721 38.3911 35.7354 38.7532 35.9906 38.5834C36.3561 38.3379 36.7135 38.0536 36.9851 37.6752V37.6732ZM6.0648 12.9988C6.02396 12.8495 5.91369 12.7902 5.80546 12.7288C5.56655 12.5918 5.32763 12.4527 5.09076 12.3136C4.3495 11.882 4.37809 11.8984 3.95335 12.6204C3.68176 13.0848 3.64705 13.3793 4.24944 13.5348C4.44956 13.5859 4.62518 13.7332 4.82325 13.8068C5.04583 13.8886 5.28679 14.2077 5.49303 13.9888C5.74624 13.7209 5.87898 13.3384 6.0648 13.0029V12.9988ZM10.3755 7.86066C9.92626 7.34521 9.52602 6.88089 9.11762 6.4227C9.09924 6.40225 8.99306 6.4268 8.95222 6.46157C8.63162 6.73975 8.19258 6.95657 8.0619 7.3493C7.97613 7.60907 8.40496 7.77475 8.58465 7.9977C8.71738 8.16339 8.86237 8.32498 9.02573 8.45998C9.15438 8.56634 9.24423 8.86089 9.47497 8.68293C9.78536 8.44361 10.059 8.15316 10.3755 7.85861V7.86066ZM7.98022 34.7461C7.76172 34.4761 7.5616 34.1284 7.27163 33.8973C7.01434 33.6907 6.84689 34.0609 6.63861 34.1672C6.43441 34.2736 6.269 34.4577 6.06888 34.5723C5.65435 34.8095 5.57676 35.0284 5.92799 35.4354C6.53038 36.1329 6.50179 36.1595 7.192 35.5745C7.40232 35.3966 7.61469 35.2166 7.8189 35.0304C7.89037 34.965 8.00268 34.9159 7.98226 34.7441L7.98022 34.7461Z" fill="#9A3A4A"/>
<path d="M29.062 17.3721C29.0784 17.6236 29.2438 17.7934 29.399 17.9693C29.7298 18.3443 29.6719 18.6614 29.2254 18.9205C27.506 19.9166 26.2502 19.8164 24.6696 18.6075C23.1892 17.4764 21.6842 16.3821 19.9505 15.6539C17.4491 14.6025 15.015 15.8666 14.5065 18.4827C14.1185 20.4811 15.7011 22.7046 17.7166 23.0502C19.3747 23.3346 21.0083 23.0564 22.6419 22.8764C27.1813 22.3793 30.2464 26.8875 28.964 30.8455C27.9961 33.838 23.6793 36.5196 19.8239 34.3146C18.662 33.6498 17.6308 32.8234 16.6139 31.9664C15.646 31.1502 15.0334 31.183 14.2615 32.218C13.2997 33.5046 12.4012 34.8361 11.4782 36.1534C11.1188 36.6661 10.7002 36.7309 10.2224 36.3477C9.90584 36.0941 9.58524 35.8405 9.2769 35.5746C9.13192 35.4498 8.84807 35.3618 9.04819 35.0796C9.21564 34.8443 9.33408 34.5784 9.75065 34.7134C10.3102 34.8955 10.9023 34.9773 11.5558 35.1184C11.276 34.4414 11.0167 33.8359 10.7737 33.2264C10.5409 32.6393 10.7492 32.3673 11.3781 32.4593C11.9438 32.5411 12.5033 32.6618 13.1649 32.7825C12.8749 32.0911 12.6238 31.5061 12.3828 30.9171C12.3154 30.7514 12.197 30.6041 12.3746 30.3975C13.8551 28.6896 15.9175 28.3071 17.5961 29.4198C17.9004 29.6202 18.0392 29.8002 17.8799 30.1909C17.6737 30.6961 17.5532 31.2361 17.3633 31.8764C18.0637 31.6432 18.66 31.4386 19.2624 31.2464C19.8484 31.0582 19.9587 31.14 19.9138 31.7536C19.8729 32.3202 19.8076 32.8868 19.7463 33.525C20.3916 33.3839 20.8797 32.9911 21.4126 32.7089C22.1314 32.3284 22.648 32.355 23.2811 32.8766C23.7569 33.2693 24.2306 33.6641 24.7779 34.1202C24.8514 33.5311 24.9453 33.0341 24.9698 32.535C24.9984 31.9643 25.1904 31.7148 25.8193 31.7966C26.4074 31.8743 27.0118 31.813 27.6428 31.813C27.4958 31.3159 27.1568 30.9027 26.8893 30.4548C26.4605 29.7389 26.4666 29.6591 27.0997 29.1334C27.5428 28.7632 27.9838 28.3889 28.4249 28.0125C28.4535 27.988 28.4617 27.9389 28.4964 27.8632C28.1901 27.7834 27.892 27.6893 27.5897 27.63C26.8036 27.4766 26.1399 27.2373 25.658 26.4702C25.2128 25.7646 24.394 25.4455 23.5404 25.4516C23.0973 25.4536 22.889 25.2552 22.6971 24.9177C22.4357 24.4555 22.1498 24.0096 21.8169 23.4634C21.5004 24.1446 21.2248 24.7336 20.9511 25.3248C20.8613 25.5211 20.7857 25.7114 20.5141 25.7298C20.1976 25.7523 20.1956 25.4946 20.1098 25.3186C19.8586 24.7991 19.6177 24.2734 19.342 23.6843C18.9683 24.2857 18.6171 24.8421 18.274 25.4046C18.174 25.5682 18.1229 25.7646 17.8595 25.7155C17.6063 25.6684 17.5246 25.5252 17.4838 25.2798C17.3796 24.6682 17.2387 24.0648 17.0692 23.2609C16.5608 23.8173 16.134 24.2632 15.7358 24.7316C15.5255 24.9771 15.3437 24.9934 15.0864 24.8134C13.2772 23.5534 12.1133 21.8905 11.8335 19.6589C11.7722 19.1761 11.8907 18.9061 12.4134 18.8305C12.8892 18.7609 13.3528 18.6096 13.8224 18.495C13.3773 18.0225 12.9791 17.5521 12.5278 17.1389C12.244 16.8791 12.3481 16.6746 12.4625 16.4066C12.585 16.1161 12.7667 16.0446 13.0648 16.0977C13.6244 16.2 14.1777 16.3636 14.8312 16.3411C14.5637 15.7684 14.3432 15.2366 14.0716 14.7334C13.9062 14.4266 14.0266 14.2691 14.2492 14.0911C14.4575 13.9255 14.6168 13.7905 14.9047 14.0032C15.4152 14.3816 15.9645 14.7027 16.5465 15.0811C16.6466 14.4798 16.5547 13.9521 16.4771 13.4366C16.4097 12.9784 16.5935 12.8352 16.9896 12.7596C18.2495 12.5202 19.4645 12.7105 20.6489 13.1318C22.4867 13.7864 22.4826 13.7966 22.1559 15.7234C22.1375 15.8257 22.1314 15.9321 22.109 16.1468C22.7522 15.8482 23.3178 15.5782 23.8876 15.3205C24.0734 15.2366 24.2674 15.0607 24.4757 15.255C24.6513 15.4166 24.5369 15.6089 24.4961 15.793C24.3776 16.333 24.2694 16.8771 24.1326 17.5336C24.7207 17.3046 25.221 17.1102 25.7213 16.9159C25.8806 16.8546 26.0684 16.7093 26.1971 16.7482C26.8587 16.9568 27.4876 17.0468 28.1125 16.6316C28.1533 16.603 28.3555 16.8402 28.4944 16.9323C28.6986 17.0673 28.7374 17.4109 29.0682 17.3823L29.0579 17.37L29.062 17.3721Z" fill="#F0D9A5"/>
<path d="M29.0702 17.3864C29.3316 16.7359 29.595 16.0855 29.8952 15.3368C29.2315 15.4473 28.6373 15.5414 28.0451 15.6457C27.7735 15.6948 27.4856 15.8196 27.3284 15.4596C27.1773 15.1139 27.2242 14.7846 27.4815 14.5084C27.6612 14.3161 27.9063 14.2302 28.1533 14.1484C29.4704 13.7086 30.7875 13.2648 32.1026 12.8168C32.46 12.6941 32.8132 12.6205 33.1297 12.8905C33.2768 13.0152 33.3891 13.0071 33.5157 12.8843C33.532 12.87 33.5463 12.8516 33.5626 12.8414C34.31 12.42 34.99 11.9721 34.5816 10.9207C34.5183 10.7571 34.5877 10.5382 34.6041 10.3459C34.6163 10.1884 34.6531 10.0268 34.8634 10.0718C35.0227 10.1066 35.2085 10.1455 35.1758 10.3909C35.1534 10.5607 35.135 10.7325 35.135 10.9023C35.135 11.7757 35.2657 11.9046 36.107 11.97C36.3806 11.9905 36.6543 12.0621 36.9197 12.1398C37.077 12.1848 37.2587 12.2564 37.1607 12.4977C37.0729 12.7125 36.9565 12.7698 36.7135 12.69C35.7742 12.375 34.9104 12.553 34.1017 13.1216C33.7852 13.3446 33.6995 13.5409 34.0078 13.8089C34.5224 14.2548 34.4856 14.7416 34.1998 15.3061C33.5667 16.5682 32.9807 17.8527 32.3497 19.1148C31.9944 19.8225 31.3613 19.9289 30.8406 19.4318C30.6221 19.2232 30.5793 19.035 30.7161 18.7548C30.9693 18.2414 31.1837 17.7075 31.4328 17.1389C30.5833 17.0571 29.8482 17.5071 29.06 17.3721L29.0702 17.3843V17.3864Z" fill="#F0D9A5"/>
<path d="M38.8515 15.2141C39.2538 15.7029 39.1517 16.1223 38.9699 16.5886C38.2879 18.3416 37.7059 20.1334 36.8585 21.8189C36.6747 22.185 36.4562 22.5286 36.1826 22.8314C35.7476 23.3141 35.2106 23.5064 34.5632 23.3591C33.4074 23.0952 32.3824 22.4877 31.2756 22.0929C30.4669 21.8045 29.6563 21.5386 28.7884 21.5345C28.6536 21.5345 28.4596 21.4875 28.4188 21.692C28.3902 21.8352 28.5209 21.9252 28.6189 22.0009C29.1478 22.4079 29.74 22.7066 30.3546 22.9602C30.9284 23.1954 31.5125 23.4041 32.0679 23.6761C34.2712 24.7541 34.9594 26.3025 34.3529 28.6957C33.8567 30.6614 32.9419 32.4552 32.1006 34.2777C31.4737 35.6359 30.7937 36.9716 30.1647 38.3298C29.9707 38.7491 29.7277 39.0559 29.2458 39.1295C29.1131 38.927 29.2969 38.7716 29.3683 38.6141C30.5221 36.1554 31.7064 33.7111 32.8357 31.2423C33.4136 29.9802 33.9159 28.6793 33.9649 27.2577C34.0058 26.1 33.4953 25.245 32.5559 24.6129C31.8392 24.1302 31.0244 23.8623 30.2342 23.5391C29.5011 23.2404 28.7782 22.9111 28.186 22.3629C27.9267 22.1236 27.6735 21.8577 27.8021 21.4752C27.9369 21.0723 28.2942 20.9884 28.6843 20.97C30.0361 20.9086 31.2286 21.4629 32.4416 21.9293C33.0399 22.1604 33.6178 22.4427 34.2181 22.6636C35.0982 22.9868 35.5454 22.8129 36.0437 22.0009C36.6828 20.9577 37.1055 19.8123 37.5487 18.6811C37.9918 17.552 38.4022 16.4107 38.8494 15.21L38.8515 15.2141Z" fill="#9A963C"/>
<path d="M13.6305 26.3925C13.3569 25.7666 12.8259 25.4373 12.3297 25.0875C11.4374 24.4596 10.4592 23.9584 9.6077 23.2671C9.47497 23.1586 9.33612 23.0564 9.20951 22.9418C7.25938 21.1643 6.91836 19.3889 8.0619 16.9936C9.31365 14.3652 11.0841 12.0723 12.734 9.69955C13.5182 8.57455 14.3329 7.47205 15.113 6.34501C15.3682 5.97683 15.6991 5.82546 16.2402 5.7641C15.4418 6.88705 14.7005 7.92001 13.9715 8.96114C12.1561 11.5568 10.206 14.0646 8.75414 16.8996C8.56015 17.278 8.40904 17.6809 8.26406 18.0839C7.65349 19.7836 8.11703 21.1848 9.4423 22.3589C10.3142 23.1321 11.2944 23.7375 12.2787 24.3471C12.8974 24.7316 13.4978 25.1489 13.9286 25.7564C14.1349 26.0448 14.3084 26.3598 14.1042 26.7075C13.9 27.0552 13.5284 27.0655 13.1874 27.0164C12.1521 26.865 11.2556 26.3434 10.3265 25.9118C9.94055 25.7318 9.54236 25.5682 9.136 25.4496C8.06394 25.1386 7.20629 25.5334 6.50996 26.3434C6.12198 26.7955 5.76462 27.2741 5.39297 27.7425C5.06217 27.3866 5.15202 27.0573 5.41748 26.7382C5.69111 26.4089 5.95453 26.0673 6.25062 25.7584C7.16953 24.8011 8.25384 24.5311 9.52807 24.9464C10.4306 25.2409 11.2229 25.7686 12.1031 26.1021C12.5748 26.2821 13.0465 26.5091 13.6284 26.3905L13.6305 26.3925Z" fill="#9A963C"/>
<path d="M22.6174 2.47909C22.6174 2.5425 22.6174 2.60795 22.6174 2.67136C22.6174 3.48136 22.1947 3.78613 21.3983 3.56727C21.2248 3.52022 21.2309 3.40772 21.2186 3.28295C21.1962 3.02727 21.1655 2.77363 21.1533 2.51795C21.0982 1.36432 20.894 1.58113 22.0457 1.50341C22.5194 1.47272 22.7277 1.5975 22.6215 2.09454C22.595 2.21727 22.6174 2.35022 22.6174 2.47909Z" fill="#FFBB47"/>
<path d="M23.4934 2.56091C23.4996 2.475 23.5077 2.39113 23.5118 2.30522C23.5567 1.48091 23.5567 1.49318 24.3715 1.56477C24.8575 1.60772 25.2087 1.70181 24.976 2.31545C24.9188 2.46886 24.929 2.65295 24.929 2.82272C24.929 3.42 24.7615 3.73091 24.0448 3.61636C23.569 3.53863 23.326 3.465 23.4567 2.94136C23.4873 2.82068 23.473 2.68772 23.4792 2.55886H23.4914L23.4934 2.56091Z" fill="#FFBB47"/>
<path d="M40.6852 11.9741C40.7056 12.1255 40.6689 12.1889 40.5831 12.2359C40.1175 12.4977 39.6499 12.7575 39.1905 13.0295C38.9924 13.1482 38.9291 13.0111 38.8515 12.8843C38.7269 12.6839 38.6166 12.4752 38.4778 12.287C38.296 12.0436 38.3206 11.882 38.5942 11.7307C38.8351 11.5957 39.0455 11.4034 39.2844 11.2643C39.5111 11.1314 39.7786 10.757 39.9583 10.9145C40.2829 11.1989 40.4688 11.6407 40.6852 11.9741Z" fill="#FFBB47"/>
<path d="M40.4402 33.0484C39.995 32.7825 39.4825 32.5105 39.0128 32.1791C38.8025 32.0298 39.0434 31.8293 39.121 31.6759C39.5213 30.8966 39.5274 30.8986 40.2891 31.2811C40.3646 31.32 40.4443 31.3548 40.5178 31.3977C40.7689 31.5491 41.2611 31.6227 41.2345 31.8396C41.1855 32.2364 40.8976 32.6025 40.7036 32.9789C40.6648 33.0566 40.5954 33.1098 40.4402 33.0484Z" fill="#FFBB47"/>
<path d="M41.8124 24.6068C42.0186 24.6375 42.2514 24.66 42.4801 24.7091C42.7599 24.7705 43.1744 24.5905 43.299 24.8891C43.4644 25.2839 43.2398 25.7216 43.1744 26.1389C43.1438 26.3393 42.9253 26.2902 42.7987 26.2493C42.2698 26.0755 41.5817 26.2534 41.2263 25.7891C41.0671 25.5825 41.2856 25.0589 41.3836 24.6927C41.4285 24.523 41.645 24.6211 41.8124 24.6068Z" fill="#FFBB47"/>
<path d="M20.3304 2.99659C20.2813 3.19295 20.5366 3.50795 20.267 3.61636C19.9219 3.75545 19.5238 3.77591 19.146 3.80454C19.0051 3.81477 19.003 3.61432 18.9785 3.49568C18.903 3.12136 18.8662 2.73682 18.7641 2.36863C18.6559 1.98204 18.7049 1.80613 19.1644 1.76113C20.2875 1.65273 20.1527 1.27432 20.3283 2.99659H20.3304Z" fill="#FFBB47"/>
<path d="M3.16309 20.4566C2.78532 20.0107 1.76635 20.8718 1.70101 19.7652C1.68263 19.4543 1.48864 18.6873 2.21968 18.8345C2.73835 18.9388 3.57354 18.6095 3.72669 19.4604C3.77978 19.7591 3.94314 20.4034 3.16105 20.4586L3.16309 20.4566Z" fill="#FFBB47"/>
<path d="M42.3413 21.5079C42.3005 21.5079 42.2147 21.5202 42.131 21.5059C41.9084 21.4691 41.5653 21.6573 41.4836 21.4118C41.3672 21.06 41.3877 20.657 41.3897 20.2766C41.3897 20.1416 41.5694 20.1211 41.7001 20.1089C41.9125 20.0884 42.1269 20.0782 42.3372 20.0475C43.4072 19.892 43.5052 19.9923 43.4705 21.1091C43.4624 21.3586 43.395 21.4589 43.154 21.465C42.8988 21.4711 42.6435 21.4916 42.3413 21.51V21.5079Z" fill="#FFBB47"/>
<path d="M27.8205 40.7209C28.1615 40.682 28.1615 40.8866 28.1962 41.0461C28.3106 41.5718 28.7741 42.1077 28.5229 42.5905C28.3882 42.8482 27.747 42.842 27.3324 42.9443C27.2896 42.9545 27.1915 42.8973 27.1813 42.8564C27.0445 42.2734 26.7852 41.6761 26.8403 41.1075C26.8709 40.7802 27.553 40.9009 27.8205 40.7189V40.7209Z" fill="#FFBB47"/>
<path d="M32.9827 6.68044C32.6172 6.44521 32.2312 6.27339 31.9576 5.99317C31.7881 5.8193 32.0903 5.59226 32.1802 5.38771C32.2578 5.21385 32.3885 5.06248 32.4538 4.88453C32.6723 4.27908 32.9562 4.24021 33.5096 4.5818C34.0568 4.92135 34.1671 5.18112 33.726 5.66589C33.5136 5.89908 33.3707 6.19362 33.189 6.45544C33.1338 6.53521 33.0562 6.60067 32.9827 6.68044Z" fill="#FFBB47"/>
<path d="M42.5516 23.8275C42.4454 23.8214 42.3392 23.8152 42.231 23.8091C41.4918 23.7723 41.1732 23.2323 41.4898 22.547C41.5143 22.4939 41.5653 22.4182 41.6082 22.4161C42.182 22.3875 42.7558 22.365 43.3296 22.3548C43.4542 22.3527 43.493 22.4714 43.495 22.5859C43.4971 22.6923 43.4991 22.8007 43.4971 22.907C43.4875 23.5452 43.1724 23.852 42.5516 23.8275Z" fill="#FFBB47"/>
<path d="M2.57295 21.2318C2.55457 21.2318 2.61991 21.2298 2.68321 21.2318C3.59804 21.2768 3.7226 21.4711 3.53882 22.4141C3.47143 22.7598 3.23456 22.6882 3.0569 22.6575C2.5464 22.5696 1.90929 22.9521 1.54785 22.4325C1.37836 22.1911 1.52743 21.7248 1.53764 21.3607C1.54377 21.1439 1.68671 21.1459 1.85211 21.1684C2.06448 21.1971 2.27889 21.2073 2.57295 21.2318Z" fill="#FFBB47"/>
<path d="M18.1699 3.7493C18.2209 3.98862 18.0555 4.03362 17.8881 4.09499C17.2387 4.3309 16.812 4.1168 16.6078 3.45271C16.5832 3.3709 16.5669 3.28703 16.5404 3.20726C16.2892 2.41362 16.3014 2.45044 17.055 2.19271C17.6471 1.99021 17.8942 2.14567 17.9494 2.75521C17.98 3.09067 18.0943 3.41999 18.1699 3.75135V3.7493Z" fill="#FFBB47"/>
<path d="M42.9621 27.2864C42.8375 27.7343 42.8498 28.2007 42.6251 28.4093C42.0779 28.9125 41.5714 28.215 41.0181 28.1986C40.7955 28.1925 40.6035 28.0964 40.7261 27.7834C40.8179 27.5482 40.8608 27.2905 40.92 27.0409C40.9588 26.8752 41.0344 26.7566 41.2243 26.8016C41.743 26.9202 42.2596 27.0471 42.7762 27.1677C42.8947 27.1964 42.9764 27.2434 42.96 27.2864H42.9621Z" fill="#FFBB47"/>
<path d="M40.1094 33.975C39.8459 34.3452 39.6377 34.7666 39.313 35.055C39.0986 35.2452 38.9148 34.8505 38.7004 34.7502C38.6064 34.7052 38.5288 34.6255 38.4451 34.56C37.5589 33.8911 37.5568 33.8646 38.2879 33.0546C38.3716 32.9625 38.4247 32.8214 38.584 32.9236C39.0496 33.2223 39.5131 33.525 39.9746 33.8298C40.0216 33.8605 40.0542 33.9136 40.1114 33.975H40.1094Z" fill="#FFBB47"/>
<path d="M26.2481 42.9096C26.2951 43.0896 26.2032 43.1816 26.0317 43.2225C25.9684 43.2368 25.9071 43.2573 25.8438 43.2614C24.7268 43.3411 24.7963 43.7257 24.686 42.3839C24.6799 42.3205 24.6778 42.255 24.6696 42.1916C24.588 41.445 24.9617 41.1116 25.7417 41.2159C25.901 41.2364 25.9602 41.3018 25.9868 41.4471C26.0582 41.848 26.1399 42.2448 26.2155 42.6457C26.2318 42.7296 26.2359 42.8155 26.2481 42.9096Z" fill="#FFBB47"/>
<path d="M21.48 42.5168C21.4861 42.435 21.4841 42.4575 21.4841 42.478C21.4453 43.4925 21.1104 43.7134 20.1384 43.3984C19.9362 43.333 19.9281 43.2184 19.9465 43.065C19.9771 42.8114 20.0241 42.5598 20.0506 42.3041C20.1568 41.3059 20.3569 41.1791 21.3207 41.4573C21.5086 41.5125 21.5515 41.5943 21.527 41.7743C21.4984 41.985 21.4984 42.1998 21.48 42.5148V42.5168Z" fill="#FFBB47"/>
<path d="M41.8104 14.2057C41.7716 14.2732 41.7552 14.355 41.7103 14.3734C41.1855 14.6045 40.673 14.942 40.1257 15.0116C39.7071 15.0648 39.7581 14.4368 39.5437 14.1463C39.3906 13.9418 39.5008 13.7966 39.7071 13.6984C39.9746 13.5695 40.2278 13.3998 40.5055 13.3016C40.7485 13.2157 41.0099 12.8434 41.2243 13.0807C41.4979 13.3854 41.6225 13.8232 41.8104 14.2036V14.2057Z" fill="#FFBB47"/>
<path d="M12.0888 38.3891C12.3889 38.5793 12.779 38.7286 13.0118 39.0089C13.1894 39.2216 12.8504 39.4793 12.7442 39.7166C12.6748 39.872 12.5503 40.005 12.4972 40.1625C12.2827 40.8089 11.9662 40.7086 11.4659 40.4223C10.9289 40.1134 10.8186 39.8516 11.2331 39.375C11.4414 39.1357 11.5925 38.8473 11.7722 38.5814C11.8417 38.4791 11.8968 38.3482 12.0908 38.3891H12.0888Z" fill="#FFBB47"/>
<path d="M28.4127 2.33795C28.8905 2.4975 29.4255 2.50977 29.5787 2.75932C29.9095 3.29932 29.3418 3.79022 29.2295 4.32409C29.1886 4.51636 29.1233 4.70863 28.8497 4.61863C28.5679 4.52454 28.2779 4.44886 28.0022 4.34045C27.6347 4.19727 27.8858 3.92522 27.9389 3.74932C28.0798 3.27682 28.139 2.75932 28.4106 2.33795H28.4127Z" fill="#FFBB47"/>
<path d="M35.1411 39.2236C34.8287 39.5755 34.4489 39.8168 34.0629 40.0255C33.7811 40.1789 33.7464 39.8291 33.6259 39.6859C33.4912 39.5243 33.4136 39.3116 33.2706 39.1561C32.801 38.6427 32.8806 38.3093 33.4932 37.9514C33.8751 37.7284 34.0486 37.7059 34.2876 38.0843C34.5367 38.4791 34.845 38.835 35.1391 39.2236H35.1411Z" fill="#FFBB47"/>
<path d="M41.5 19.305C41.4122 19.305 41.257 19.35 41.2263 19.2375C41.1283 18.8693 41.0038 18.4888 41.0099 18.1166C41.016 17.8241 41.3917 17.9284 41.5919 17.8323C41.6858 17.7873 41.7981 17.7852 41.9023 17.7607C42.9682 17.5152 42.9519 17.5193 43.1458 18.6279C43.1989 18.9327 43.1622 19.0432 42.8395 19.0759C42.3944 19.1209 41.9574 19.2232 41.5 19.3029V19.305Z" fill="#FFBB47"/>
<path d="M4.30458 17.0939C4.20248 17.462 4.14122 17.8036 4.01257 18.1166C3.88393 18.4295 3.62459 18.1923 3.46123 18.1473C2.98952 18.0184 2.32382 18.135 2.10737 17.6768C1.97055 17.3864 2.28298 16.8791 2.4055 16.4741C2.41571 16.4373 2.51577 16.3943 2.55865 16.4066C3.10796 16.5702 3.65726 16.738 4.20044 16.92C4.25557 16.9384 4.28008 17.0489 4.30662 17.0959L4.30458 17.0939Z" fill="#FFBB47"/>
<path d="M32.0801 38.9066C32.1475 38.9884 32.221 39.06 32.2741 39.1439C32.3885 39.3259 32.4906 39.512 32.5988 39.6982C33.1869 40.7004 33.142 40.8048 32.0475 41.2364C31.8228 41.3243 31.7452 41.2548 31.6636 41.0829C31.5145 40.7741 31.345 40.4754 31.2164 40.1584C31.1286 39.9395 30.8018 39.7043 31.053 39.4834C31.3328 39.2359 31.7146 39.1029 32.0801 38.9066Z" fill="#FFBB47"/>
<path d="M17.2081 41.0298C16.7241 41.5023 17.1448 42.4309 16.3382 42.5557C16.038 42.6027 15.2171 42.5291 15.3213 41.9911C15.4275 41.4491 15.3601 40.59 16.1381 40.4366C16.4301 40.3793 17.0039 40.4918 17.2061 41.0298H17.2081Z" fill="#FFBB47"/>
<path d="M6.44665 12.1459C5.94432 11.8166 5.44198 11.4934 4.9519 11.1539C4.83346 11.072 4.94781 10.9595 5.00295 10.8777C5.15814 10.6466 5.3358 10.4298 5.47261 10.1905C5.64822 9.88568 5.8218 9.88772 6.06684 10.1127C6.2547 10.2845 6.48341 10.4134 6.6774 10.5791C6.88569 10.755 7.31043 10.888 7.24917 11.117C7.15728 11.4648 6.84689 11.7573 6.62023 12.0682C6.5896 12.1091 6.512 12.1173 6.44257 12.1459H6.44665Z" fill="#FFBB47"/>
<path d="M2.59745 23.5452C2.66075 23.5452 2.7261 23.5391 2.7894 23.5452C3.03444 23.5718 3.39588 23.3468 3.50206 23.6107C3.63684 23.9502 3.60825 24.3634 3.61233 24.7459C3.61233 24.8952 3.42038 24.8911 3.2999 24.9095C3.02627 24.9505 2.74856 24.9873 2.47289 25.0057C2.20538 25.0241 1.82148 25.2593 1.69692 25.022C1.50497 24.658 1.52335 24.1936 1.54785 23.762C1.55806 23.5882 1.701 23.5759 1.82965 23.5739C2.0849 23.5677 2.3422 23.5739 2.59745 23.5739V23.5452Z" fill="#FFBB47"/>
<path d="M16.0727 4.54908C15.9135 4.79044 15.5786 4.77612 15.3417 4.92339C14.966 5.15658 14.7373 5.10748 14.6107 4.65135C14.5371 4.38748 14.4187 4.12567 14.2696 3.89453C13.945 3.39135 14.141 3.18476 14.6433 3.0068C15.4356 2.72658 15.4254 2.69794 15.7174 3.5243C15.8236 3.82703 15.9359 4.12567 16.0462 4.42635C16.0544 4.4468 16.0564 4.46726 16.0748 4.54908H16.0727Z" fill="#FFBB47"/>
<path d="M30.9611 3.27274C31.1776 3.37705 31.5431 3.55092 31.9025 3.73296C32.0413 3.80455 31.9617 3.91296 31.9168 4.00296C31.6983 4.44069 31.4696 4.87433 31.2572 5.31615C31.1449 5.54933 30.9917 5.58206 30.8059 5.42865C30.5343 5.20569 29.9176 5.29978 29.9809 4.82933C30.0504 4.32001 30.3608 3.84342 30.567 3.35251C30.6099 3.24819 30.6752 3.16637 30.9611 3.27274Z" fill="#FFBB47"/>
<path d="M15.0517 40.1605C14.8373 40.6698 14.6188 41.1996 14.386 41.7252C14.3064 41.9032 14.1737 41.7805 14.0614 41.7457C12.9403 41.4 12.9035 41.3121 13.4304 40.2586C13.4773 40.1625 13.5141 40.0602 13.5774 39.9764C13.704 39.8046 13.6999 39.4343 14.0062 39.5243C14.3656 39.6286 14.6944 39.8434 15.0313 40.0173C15.0517 40.0275 15.0436 40.095 15.0517 40.1625V40.1605Z" fill="#FFBB47"/>
<path d="M5.52775 30.9907C5.5543 31.2341 5.39093 31.2771 5.26433 31.3425C4.94373 31.5102 4.60067 31.6432 4.3005 31.8416C3.93906 32.083 3.75936 32.0748 3.56537 31.6248C3.16717 30.7002 3.13654 30.7146 4.06771 30.3177C4.1453 30.285 4.2229 30.2461 4.30458 30.2236C4.5435 30.1582 4.82325 29.8555 4.99682 30.0334C5.25208 30.2932 5.37051 30.688 5.52775 30.9907Z" fill="#FFBB47"/>
<path d="M39.3436 9.95727C39.3497 10.1495 39.2333 10.1904 39.1537 10.2518C38.9515 10.4073 38.7412 10.5545 38.535 10.7059C37.757 11.2766 37.5548 11.2193 37.079 10.3766C36.9075 10.0739 37.1341 9.97363 37.2893 9.87954C37.7345 9.60954 37.9836 8.88954 38.5676 9.04499C38.8964 9.13295 39.1088 9.66477 39.3416 9.95931L39.3436 9.95727Z" fill="#FFBB47"/>
<path d="M22.3765 42.5864C22.3765 42.4207 22.3765 42.3573 22.3765 42.2918C22.3846 41.5432 22.8543 41.2384 23.5915 41.4798C23.8692 41.5698 23.8018 41.805 23.7793 41.9523C23.6997 42.4595 24.1448 43.0711 23.6854 43.4393C23.4342 43.6418 22.8523 43.6193 22.5153 43.4741C22.1396 43.3104 22.452 42.8216 22.3744 42.5864H22.3765Z" fill="#FFBB47"/>
<path d="M30.9039 41.5821C30.8999 41.8664 30.6589 41.8623 30.5037 41.9318C29.5644 42.3511 29.5623 42.3471 29.2193 41.3939C29.1968 41.3346 29.1825 41.2711 29.1621 41.2118C28.8885 40.4489 29.1601 40.0296 29.9769 39.9621C30.0504 39.9559 30.1749 39.9784 30.1974 40.0234C30.4445 40.543 30.6752 41.0686 30.9039 41.5821Z" fill="#FFBB47"/>
<path d="M5.09484 34.1734C4.75178 33.8482 4.55167 33.4493 4.35359 33.0566C4.19431 32.7416 4.55371 32.7539 4.69256 32.6434C4.85797 32.5125 5.05809 32.4245 5.24391 32.3202C5.98925 31.8968 5.96066 31.9152 6.46095 32.6352C6.72233 33.0095 6.6039 33.167 6.2833 33.3655C5.88306 33.6109 5.50733 33.8911 5.09484 34.1734Z" fill="#FFBB47"/>
<path d="M14.0573 5.46339C13.7367 5.64953 13.4181 5.83567 13.0996 6.01976C12.8484 6.16294 12.7647 5.97067 12.6666 5.80294C12.5707 5.63726 12.4686 5.47567 12.3706 5.30998C11.8131 4.36294 11.8213 4.37521 12.7749 3.87203C13.0873 3.70635 13.2527 3.71658 13.3936 4.07044C13.5774 4.52248 13.8122 4.95408 14.0573 5.46544V5.46339Z" fill="#FFBB47"/>
<path d="M10.9759 4.9234C11.0494 4.97454 11.1331 5.00727 11.1739 5.06658C11.4721 5.5084 11.762 5.95636 12.05 6.40431C12.1643 6.58431 12.0316 6.67227 11.9029 6.75817C11.7089 6.88908 11.5047 7.00977 11.3291 7.16522C11.082 7.38408 10.935 7.30227 10.7798 7.05477C10.6328 6.81954 10.4327 6.61908 10.2918 6.38181C10.159 6.1609 9.7486 5.96658 9.94872 5.70886C10.2019 5.38567 10.6124 5.18727 10.9759 4.92136V4.9234Z" fill="#FFBB47"/>
<path d="M4.99887 15.1589C4.91106 15.3716 4.80692 15.6989 4.64764 15.9954C4.51287 16.245 4.30662 16.0589 4.15143 15.9893C3.68585 15.7786 2.98952 15.8543 2.79961 15.3532C2.68934 15.0607 3.06507 14.5841 3.2366 14.1975C3.25294 14.1586 3.39588 14.1382 3.45714 14.1648C3.94519 14.3693 4.42914 14.5882 4.91514 14.7989C5.03562 14.852 5.06013 14.94 4.99887 15.1589Z" fill="#FFBB47"/>
<path d="M4.08404 26.7709C3.83287 27.2659 3.36933 27.2004 3.02627 27.2782C2.71997 27.3477 2.32382 27.7241 2.06856 27.2904C1.89295 26.9939 1.89703 26.5929 1.8174 26.2391C1.78064 26.0714 1.87049 26.012 2.01751 25.9895C2.52189 25.9077 3.0324 25.7277 3.52861 25.7625C4.16572 25.8075 3.70014 26.5029 4.082 26.7709H4.08404Z" fill="#FFBB47"/>
<path d="M4.64151 28.9882C4.65989 29.1498 4.55983 29.207 4.4271 29.2561C3.98602 29.4157 3.54699 29.5834 3.10795 29.7511C2.92009 29.8227 2.80982 29.7838 2.70567 29.5854C2.21151 28.6384 2.29523 28.4134 3.30807 28.1148C3.36933 28.0963 3.43263 28.0841 3.49389 28.0677C4.19635 27.8652 4.67827 28.2518 4.64151 28.9882Z" fill="#FFBB47"/>
<path d="M19.3584 41.5473C18.9785 42.0361 19.4809 42.9054 18.6967 43.1182C18.417 43.1938 17.5798 43.3084 17.639 42.6457C17.688 42.1016 17.5287 41.2773 18.2618 41.0441C18.517 40.9623 19.1439 40.9704 19.3584 41.5473Z" fill="#FFBB47"/>
<path d="M41.9962 15.2366C42.1902 15.1957 42.231 15.3102 42.2678 15.4023C42.3393 15.5802 42.378 15.7745 42.4597 15.9464C42.6925 16.4332 42.6231 16.7482 42.0248 16.8218C41.8778 16.8402 41.7389 16.9036 41.5939 16.9466C40.6791 17.2186 40.5198 17.1123 40.3769 16.1366C40.3626 16.0323 40.3115 15.8993 40.43 15.8502C40.9629 15.6314 41.502 15.4268 41.9941 15.2366H41.9962Z" fill="#FFBB47"/>
<path d="M8.73168 9.41932C8.456 9.72614 8.22117 10.0657 7.91283 10.3091C7.7025 10.4748 7.5616 10.1577 7.40028 10.0473C7.20629 9.91637 7.04905 9.73023 6.85097 9.61159C6.31188 9.29046 6.34047 9.01841 6.75908 8.55614C7.19199 8.0775 7.46971 8.00796 7.87607 8.53364C8.11907 8.84659 8.42946 9.10841 8.73372 9.41932H8.73168Z" fill="#FFBB47"/>
<path d="M41.5469 30.8966C41.0671 30.6798 40.4708 30.5345 40.0481 30.1827C39.7214 29.9107 40.2135 29.52 40.2727 29.1641C40.3156 28.9084 40.5055 28.9064 40.7118 28.9861C40.9486 29.0761 41.1957 29.1436 41.4285 29.2459C41.694 29.3625 42.1473 29.3543 42.1881 29.612C42.2514 30.0211 41.9492 30.4057 41.7961 30.8004C41.7614 30.8925 41.6878 30.9211 41.5469 30.8986V30.8966Z" fill="#FFBB47"/>
<path d="M25.7009 3.39749C25.756 3.03749 25.8316 2.68158 25.8601 2.31954C25.8969 1.87158 26.0623 1.77135 26.5156 1.88181C27.4693 2.1109 27.4754 2.07817 27.2385 3.04363C27.2079 3.1684 27.1834 3.29522 27.1425 3.4159C27.0711 3.62249 27.1262 3.98045 26.8567 3.98454C26.485 3.98863 26.1072 3.8659 25.7458 3.7534C25.6253 3.71454 25.6968 3.52226 25.7029 3.39749H25.7009Z" fill="#FFBB47"/>
<path d="M10.0733 39.4752C9.68122 39.15 9.28915 38.9066 9.01552 38.567C8.84807 38.3584 9.20134 38.1886 9.32591 38.0086C9.43413 37.8511 9.59954 37.7304 9.69551 37.5689C10.012 37.0289 10.2979 37.0002 10.8002 37.4318C11.2229 37.7939 11.225 38.0066 10.8921 38.3829C10.6001 38.7102 10.3633 39.0866 10.0733 39.4773V39.4752Z" fill="#FFBB47"/>
<path d="M34.6898 7.95273C34.4121 7.72569 34.0589 7.52728 33.8342 7.23069C33.6525 6.99341 34.0119 6.81751 34.1181 6.60887C34.1936 6.45751 34.3141 6.32864 34.4162 6.1916C34.9022 5.53296 34.8879 5.55546 35.5332 6.01978C35.9804 6.34091 36.1417 6.60887 35.6455 7.02614C35.4045 7.22864 35.2289 7.51296 35.0166 7.75228C34.9369 7.84023 34.8838 7.98137 34.6898 7.95478V7.95273Z" fill="#FFBB47"/>
<path d="M37.1689 34.652C37.324 34.7768 37.4894 34.9077 37.6549 35.0407C37.7712 35.1348 37.8876 35.2289 38.004 35.3229C38.7106 35.9079 38.6942 35.8936 38.098 36.5932C37.81 36.9327 37.5916 37.0841 37.273 36.6464C37.1484 36.4766 36.9483 36.3641 36.8156 36.1984C36.6461 35.9877 36.2173 35.8445 36.3092 35.6073C36.4399 35.2698 36.7788 35.012 37.032 34.7216C37.0565 34.6929 37.1015 34.6827 37.1668 34.6479L37.1689 34.652Z" fill="#FFBB47"/>
<path d="M37.8815 8.13887C37.7202 8.29433 37.6283 8.38024 37.5364 8.46819C37.3506 8.64615 37.1729 8.83228 36.9769 8.99592C36.7707 9.16978 36.5685 9.55637 36.35 9.4541C36.0233 9.30069 35.7884 8.94478 35.5209 8.66865C35.4883 8.63592 35.476 8.5316 35.5026 8.50296C35.9048 8.06115 36.3132 7.62546 36.7257 7.19387C36.7502 7.16933 36.8605 7.18569 36.8973 7.22046C37.226 7.51705 37.5446 7.82183 37.8815 8.13683V8.13887Z" fill="#FFBB47"/>
<path d="M9.59137 36.362C9.46884 36.5216 9.41167 36.6075 9.34224 36.6832C9.14212 36.9041 8.9032 37.0984 8.74188 37.3459C8.34573 37.9534 8.04556 37.8082 7.59835 37.3561C7.17974 36.9327 7.14911 36.6729 7.63511 36.3375C7.82502 36.2066 7.96387 35.9959 8.15787 35.8711C8.33144 35.7607 8.43354 35.3986 8.71738 35.597C9.02777 35.8139 9.29119 36.0961 9.59137 36.362Z" fill="#FFBB47"/>
<path d="M36.9871 37.6752C36.7155 38.0536 36.3582 38.3379 35.9927 38.5834C35.7374 38.7552 35.6741 38.3911 35.5373 38.2602C35.3698 38.0986 35.2555 37.8736 35.0778 37.7264C34.5449 37.2886 34.7205 36.9961 35.1738 36.6054C35.5659 36.2679 35.7823 36.2823 36.0743 36.6791C36.2765 36.9532 36.544 37.1761 36.7788 37.4236C36.8523 37.5014 36.9156 37.5852 36.9871 37.6732V37.6752Z" fill="#FFBB47"/>
<path d="M6.0648 12.9989C5.87898 13.3343 5.74625 13.7168 5.49304 13.9848C5.28475 14.2057 5.04584 13.8845 4.82325 13.8027C4.62518 13.7291 4.45161 13.5839 4.24945 13.5307C3.64705 13.3752 3.68177 13.0827 3.95335 12.6164C4.37605 11.8943 4.34951 11.878 5.09076 12.3095C5.32968 12.4486 5.56655 12.5877 5.80547 12.7248C5.91574 12.7882 6.02396 12.8455 6.0648 12.9948V12.9989Z" fill="#FFBB47"/>
<path d="M10.3735 7.86068C10.057 8.15523 9.78332 8.44364 9.47293 8.685C9.24218 8.86296 9.15233 8.57046 9.02369 8.46205C8.86033 8.32705 8.71738 8.16546 8.58261 7.99977C8.40291 7.77682 7.97409 7.60909 8.05985 7.35137C8.19054 6.95659 8.62958 6.74182 8.95018 6.46364C8.98897 6.42887 9.09516 6.40432 9.11558 6.42477C9.52398 6.88296 9.92626 7.34727 10.3735 7.86273V7.86068Z" fill="#FFBB47"/>
<path d="M7.97818 34.7461C7.9986 34.9179 7.88629 34.967 7.81482 35.0325C7.61061 35.2186 7.39824 35.3966 7.18791 35.5766C6.49771 36.1616 6.5263 36.135 5.9239 35.4375C5.57268 35.0304 5.65232 34.8116 6.0648 34.5743C6.26696 34.4577 6.43033 34.2757 6.63453 34.1693C6.84077 34.0629 7.00822 33.6927 7.26755 33.8993C7.55752 34.1325 7.75764 34.4782 7.97613 34.7482L7.97818 34.7461Z" fill="#FFBB47"/>
</g>
<defs>
<clipPath id="clip0_4_85">
<rect width="45" height="45" fill="white"/>
</clipPath>
</defs>
</svg>
